<svg height="659.962" viewBox="0 0 1746 659.962" width="1746" xmlns="http://www.w3.org/2000/svg" xmlns:xlink="http://www.w3.org/1999/xlink"><linearGradient id="a" gradientUnits="objectBoundingBox" x1=".5" x2=".5" y2="1"><stop offset="0" stop-color="#ff8a66"/><stop offset="1" stop-color="#fd754b"/></linearGradient><filter id="b" filterUnits="userSpaceOnUse" height="500.678" width="500.678" x="901.864" y="159.283"><feOffset dy="5"/><feGaussianBlur result="blur" stdDeviation="12.5"/><feFlood flood-opacity=".22"/><feComposite in2="blur" operator="in"/><feComposite in="SourceGraphic"/></filter><linearGradient id="c" gradientUnits="objectBoundingBox" x1=".5" x2=".5" y2="1"><stop offset="0" stop-color="#ff5c5c"/><stop offset="1" stop-color="#e84949"/></linearGradient><filter id="d" filterUnits="userSpaceOnUse" height="500.722" width="500.722" x="1071.437" y="159.139"><feOffset dy="5"/><feGaussianBlur result="blur-2" stdDeviation="12.5"/><feFlood flood-opacity=".22"/><feComposite in2="blur-2" operator="in"/><feComposite in="SourceGraphic"/></filter><linearGradient id="e" gradientUnits="objectBoundingBox" x1=".5" x2=".5" y2="1"><stop offset="0" stop-color="#ffc466"/><stop offset="1" stop-color="#f58d34"/></linearGradient><filter id="f" filterUnits="userSpaceOnUse" height="340.98" width="670" x="902.159" y="10.709"><feOffset dy="5"/><feGaussianBlur result="blur-3" stdDeviation="12.5"/><feFlood flood-opacity=".22"/><feComposite in2="blur-3" operator="in"/><feComposite in="SourceGraphic"/></filter><linearGradient id="g" gradientUnits="objectBoundingBox" x1=".5" x2=".5" y2="1"><stop offset="0" stop-color="#ffe000"/><stop offset="1" stop-color="#fdec73"/></linearGradient><filter id="h" filterUnits="userSpaceOnUse" height="659.962" width="374.207" x="590.33" y="0"><feOffset dy="5"/><feGaussianBlur result="blur-4" stdDeviation="12.5"/><feFlood flood-opacity=".22"/><feComposite in2="blur-4" operator="in"/><feComposite in="SourceGraphic"/></filter><linearGradient id="i" gradientUnits="objectBoundingBox" x1=".5" x2=".5" y2="1"><stop offset="0" stop-color="#fff"/><stop offset="1" stop-color="#f5f5f5"/></linearGradient><filter id="j" filterUnits="userSpaceOnUse" height="659" width="374.644" x="262.159" y="0"><feOffset dy="5"/><feGaussianBlur result="blur-5" stdDeviation="12.5"/><feFlood flood-opacity=".22"/><feComposite in2="blur-5" operator="in"/><feComposite in="SourceGraphic"/></filter><radialGradient id="k" cx=".5" cy=".5" gradientUnits="objectBoundingBox" r=".5"><stop offset="0" stop-color="#575757"/><stop offset="1"/></radialGradient><filter id="l" filterUnits="userSpaceOnUse" height="92" width="247" x="306" y="400.994"><feOffset dy="3"/><feGaussianBlur result="blur-6" stdDeviation="3"/><feFlood flood-opacity=".161"/><feComposite in2="blur-6" operator="in"/><feComposite in="SourceGraphic"/></filter><filter id="m" filterUnits="userSpaceOnUse" height="73" width="248" x="688.375" y="400.994"><feOffset dy="3"/><feGaussianBlur result="blur-7" stdDeviation="3"/><feFlood flood-opacity=".161"/><feComposite in2="blur-7" operator="in"/><feComposite in="SourceGraphic"/></filter><filter id="n" filterUnits="userSpaceOnUse" height="101" width="248" x="1190.798" y="225.994"><feOffset dy="3"/><feGaussianBlur result="blur-8" stdDeviation="3"/><feFlood flood-opacity=".161"/><feComposite in2="blur-8" operator="in"/><feComposite in="SourceGraphic"/></filter><filter id="o" filterUnits="userSpaceOnUse" height="94" width="256" x="928.508" y="474.994"><feOffset dy="3"/><feGaussianBlur result="blur-9" stdDeviation="3"/><feFlood flood-opacity=".161"/><feComposite in2="blur-9" operator="in"/><feComposite in="SourceGraphic"/></filter><filter id="p" filterUnits="userSpaceOnUse" height="73" width="248" x="1308" y="428.994"><feOffset dy="3"/><feGaussianBlur result="blur-10" stdDeviation="3"/><feFlood flood-opacity=".161"/><feComposite in2="blur-10" operator="in"/><feComposite in="SourceGraphic"/></filter><filter id="q" filterUnits="userSpaceOnUse" height="73" width="168" x="1578" y="286.994"><feOffset dy="3"/><feGaussianBlur result="blur-11" stdDeviation="3"/><feFlood flood-opacity=".161"/><feComposite in2="blur-11" operator="in"/><feComposite in="SourceGraphic"/></filter><filter id="r" filterUnits="userSpaceOnUse" height="120" width="247" x="899" y="208.994"><feOffset dy="3"/><feGaussianBlur result="blur-12" stdDeviation="3"/><feFlood flood-opacity=".161"/><feComposite in2="blur-12" operator="in"/><feComposite in="SourceGraphic"/></filter><g transform="translate(-78.444 -4380.006)"><g filter="url(#b)" transform="translate(78.444 4380.01)"><path d="m193.947 7.018a10 10 0 0 1 14.107 0l176.772 175.893a10 10 0 0 1 -7.054 17.089h-353.544a10 10 0 0 1 -7.053-17.089z" fill="url(#a)" transform="matrix(.70710678 .70710678 -.70710678 .70710678 1080.79 191.78)"/></g><g filter="url(#d)" transform="translate(78.444 4380.01)"><path d="m193.978 7.017a10 10 0 0 1 14.106 0l176.8 175.894a10 10 0 0 1 -7.052 17.089h-353.602a10 10 0 0 1 -7.053-17.089z" fill="url(#c)" transform="matrix(.70710678 -.70710678 .70710678 .70710678 1108.94 475.94)"/></g><g filter="url(#f)" transform="translate(78.444 4380.01)"><path d="m290.835 5.959a10 10 0 0 1 13.33 0l271.312 242.567a10 10 0 0 1 -6.665 17.455h-542.623a10 10 0 0 1 -6.665-17.455z" fill="url(#e)" transform="translate(939.66 43.21)"/></g><g filter="url(#h)" transform="translate(78.444 4380.01)"><path d="m285.33 7.315a10 10 0 0 1 14.3 0l268.722 274.9a10 10 0 0 1 -7.151 16.99h-537.442a10 10 0 0 1 -7.151-16.99z" fill="url(#g)" transform="matrix(0 1 -1 0 927.04 32.5)"/></g><g filter="url(#j)" transform="translate(78.444 4380.01)"><path d="m284.838 7.349a10 10 0 0 1 14.324 0l268.292 275.316a10 10 0 0 1 -7.162 16.979h-536.584a10 10 0 0 1 -7.162-16.979z" fill="url(#i)" transform="matrix(0 -1 1 0 299.66 616.5)"/></g><g font-family="Philosopher-Bold, Philosopher" font-size="33" font-weight="700"><text fill="#3e3e3e" transform="translate(472.883 4680.531)"><tspan x="0" y="30">Empathize</tspan></text><text fill="#3e3e3e" transform="translate(776.091 4680.531)"><tspan x="0" y="30">Define</tspan></text><text fill="#fff" transform="translate(1269.294 4571.789)"><tspan x="0" y="30">Ideate</tspan></text><text fill="#fff" transform="translate(1111.245 4738.688)"><tspan x="0" y="30">Prototype</tspan></text><text fill="#fff" transform="translate(1400.042 4740.188)"><tspan x="0" y="30">Test</tspan></text></g><circle cx="50" cy="50" fill="url(#k)" r="50" transform="translate(965.951 4650.006)"/><circle cx="50" cy="50" fill="url(#k)" r="50" transform="translate(1547.444 4650.006)"/><circle cx="50" cy="50" fill="url(#k)" r="50" transform="translate(332.444 4650.506)"/><text fill="#3e3e3e" font-family="Philosopher-Bold, Philosopher" font-size="33" font-weight="700" transform="translate(243.444 4547.031)"><tspan x="0" y="30">Research</tspan></text><text fill="#3e3e3e" font-family="Philosopher-Bold, Philosopher" font-size="33" font-weight="700" transform="translate(918.611 4547.031)"><tspan x="0" y="30">User Insights</tspan></text><text fill="#3e3e3e" font-family="Philosopher-Bold, Philosopher" font-size="33" font-weight="700" transform="translate(1561.763 4547.031)"><tspan x="0" y="30">User Solution</tspan></text><g fill="#fff" stroke="#ff8a66"><rect height="53" rx="10" stroke="none" width="229" x="78.444" y="4674"/><rect fill="none" height="52" rx="9.5" width="228" x="78.944" y="4674.5"/></g><text fill="#3e3e3e" font-family="Philosopher-Regular, Philosopher" font-size="22" transform="translate(95.4 4686.527)"><tspan x="0" y="20">Interviews &amp; Market</tspan></text><g filter="url(#l)" transform="translate(78.444 4380.01)"><g fill="#fff" stroke="#ff8a66" transform="translate(315 406.99)"><rect height="74" rx="10" stroke="none" width="229"/><rect fill="none" height="73" rx="9.5" width="228" x=".5" y=".5"/></g></g><text fill="#3e3e3e" font-family="Philosopher-Regular, Philosopher" font-size="22" transform="translate(418.308 4796.527)"><tspan x="0" y="20">Infinity Diagram &amp;</tspan><tspan x="0" y="45">Empath Map</tspan></text><g filter="url(#m)" transform="translate(78.444 4380.01)"><g fill="#fff" stroke="#ff8a66" transform="translate(697.38 406.99)"><rect height="55" rx="10" stroke="none" width="230"/><rect fill="none" height="54" rx="9.5" width="229" x=".5" y=".5"/></g></g><text fill="#3e3e3e" font-family="Philosopher-Regular, Philosopher" font-size="22" transform="translate(793.661 4800.186)"><tspan x="0" y="20">Persona &amp; Storyboard</tspan></text><g filter="url(#n)" transform="translate(78.444 4380.01)"><g fill="#fff" transform="translate(1199.8 231.99)"><path d="m220 82.5h-210c-5.23832369 0-9.5-4.26167297-9.5-9.5v-63c0-5.23832369 4.26167631-9.5 9.5-9.5h210c5.23832703 0 9.5 4.26167631 9.5 9.5v63c0 5.23832703-4.26167297 9.5-9.5 9.5z"/><path d="m10 1c-4.96261597 0-9 4.03738403-9 9v63c0 4.96261597 4.03738403 9 9 9h210c4.96261597 0 9-4.03738403 9-9v-63c0-4.96261597-4.03738403-9-9-9zm0-1h210c5.52285767 0 10 4.47714996 10 10v63c0 5.52285004-4.47714233 10-10 10h-210c-5.52285767 0-10-4.47714996-10-10v-63c0-5.52285004 4.47714233-10 10-10z" fill="#ff8a66"/></g></g><text fill="#3e3e3e" font-family="Philosopher-Regular, Philosopher" font-size="22" transform="translate(1288.845 4627.686)"><tspan x="0" y="20">Brainstorming &amp;</tspan><tspan x="0" y="45">Features Prioritization</tspan></text><g filter="url(#o)" transform="translate(78.444 4380.01)"><g fill="#fff" stroke="#ff8a66" transform="translate(937.51 480.99)"><rect height="76" rx="10" stroke="none" width="238"/><rect fill="none" height="75" rx="9.5" width="237" x=".5" y=".5"/></g></g><text fill="#3e3e3e" font-family="Philosopher-Regular, Philosopher" font-size="22" transform="translate(1027.611 4873.186)"><tspan x="0" y="20">User Flow, Wireframes</tspan><tspan x="0" y="45">&amp; Prototypes</tspan></text><g filter="url(#p)" transform="translate(78.444 4380.01)"><g fill="#fff" stroke="#ff8a66" transform="translate(1317 434.99)"><rect height="55" rx="10" stroke="none" width="230"/><rect fill="none" height="54" rx="9.5" width="229" x=".5" y=".5"/></g></g><text fill="#3e3e3e" font-family="Philosopher-Regular, Philosopher" font-size="22" transform="translate(1431.245 4829.594)"><tspan x="0" y="20">Usability Testing</tspan></text><g filter="url(#q)" transform="translate(78.444 4380.01)"><g fill="#fff" stroke="#ff8a66" transform="translate(1587 292.99)"><rect height="55" rx="10" stroke="none" width="150"/><rect fill="none" height="54" rx="9.5" width="149" x=".5" y=".5"/></g></g><text fill="#3e3e3e" font-family="Philosopher-Regular, Philosopher" font-size="22" transform="translate(1703.745 4687.594)"><tspan x="0" y="20">Release</tspan></text><g filter="url(#r)" transform="translate(78.444 4380.01)"><g fill="#fff" stroke="#ff8a66" transform="translate(908 214.99)"><rect height="102" rx="10" stroke="none" width="229"/><rect fill="none" height="101" rx="9.5" width="228" x=".5" y=".5"/></g></g><text fill="#3e3e3e" font-family="Philosopher-Regular, Philosopher" font-size="22" transform="translate(998.046 4606.592)"><tspan x="0" y="20">User Insights,</tspan><tspan x="0" y="45">Problem Statement &amp;</tspan><tspan x="0" y="70">User Hypothesis</tspan></text></g></svg>