<?xml version="1.0" encoding="utf-8"?>
<!-- Generator: Adobe Illustrator 26.5.0, SVG Export Plug-In . SVG Version: 6.00 Build 0)  -->
<svg version="1.1" id="Layer_1" xmlns="http://www.w3.org/2000/svg" xmlns:xlink="http://www.w3.org/1999/xlink" x="0px" y="0px"
	 viewBox="0 0 27.8 47.7" style="enable-background:new 0 0 27.8 47.7;" xml:space="preserve">
<style type="text/css">
	.st0{fill:#BFBFBF;}
	.st1{fill:#575757;}
	.st2{fill:none;stroke:#575757;stroke-width:2;stroke-miterlimit:10;}
	.st3{fill:#FF8A66;}
</style>
<path class="st0" d="M8.9,18.5c0-2.5-0.3-4.3-1-5.4s-2-1.8-4-1.8H2.4V9.8h6.5c1.8,0,3.1,0.2,4,0.7c0.9,0.5,1.5,1.3,1.9,2.5
	c0.4,1.2,0.6,3,0.6,5.5v25.2H8.9L8.9,18.5L8.9,18.5z"/>
<path d="M18.1,22.5c0-2.5-0.3-4.3-1-5.4c-0.7-1.2-2-1.8-4-1.8h-1.4v-1.4h6.5c1.8,0,3.1,0.2,4,0.7C23,15,23.6,15.8,24,17
	c0.4,1.2,0.6,3,0.6,5.5v25.2h-6.5L18.1,22.5L18.1,22.5z"/>
<path class="st1" d="M23.6,7c2.5,3.1,4,6.8,4.2,10.6c-0.9-3.6-2.9-6.9-5.6-9.2L23.6,7C23.6,7,23.6,7,23.6,7z"/>
<path class="st2" d="M0.6,5.9c3-2.1,6.7-3.3,10.4-3.3"/>
<path class="st3" d="M8.1,6.9C12.2,8.4,14,7.8,14.9,7c1.5-1.3,1.1-3.8,3.3-5.3c0.8-0.5,1.5-0.7,2-0.8c-3.4-1.4-5.1-1-6-0.4
	c-1.7,1.2-1.4,3.8-3.9,5.5C9.5,6.6,8.6,6.8,8.1,6.9L8.1,6.9z"/>
<path class="st3" d="M13.4,9.1c4.1,1.4,5.9,0.9,6.8,0.1c1.5-1.3,1.1-3.8,3.3-5.3c0.8-0.5,1.5-0.7,2-0.8c-3.4-1.4-5.1-1-6-0.4
	c-1.7,1.2-1.5,3.8-3.9,5.5C14.8,8.7,14,8.9,13.4,9.1L13.4,9.1z"/>
</svg>
