<?xml version="1.0" encoding="UTF-8"?>
<svg id="Layer_1" data-name="Layer 1" xmlns="http://www.w3.org/2000/svg" viewBox="0 0 583.46124 218.98389">
  <defs>
    <style>
      .cls-1 {
        fill: #575757;
      }

      .cls-2 {
        fill: silver;
      }

      .cls-3 {
        fill: #231f20;
        font-family: Philosopher-Regular, Philosopher;
        font-size: 189.597px;
      }

      .cls-4 {
        fill: #f58859;
      }

      .cls-5 {
        letter-spacing: -.01298em;
      }

      .cls-6 {
        fill: none;
        stroke: #575757;
        stroke-miterlimit: 10;
        stroke-width: 3.5px;
      }

      .cls-7 {
        fill: #010101;
      }
    </style>
  </defs>
  <text class="cls-3" transform="translate(.56668 157.36572)"><tspan x="0" y="0">inn</tspan><tspan class="cls-5" x="252.91602" y="0">o</tspan><tspan x="350.94043" y="0">vi</tspan></text>
  <path class="cls-2" d="M535.28215,81.09543c0-6.38961-.87711-11.11935-2.63132-14.19177-1.75676-3.06987-5.26263-4.6048-10.52781-4.6048h-3.75829v-3.76084h16.91742c4.6354,0,8.11322,.59664,10.43347,1.78736,2.3177,1.19072,3.97757,3.35289,4.98216,6.48395,1.00204,3.13361,1.50434,7.8965,1.50434,14.28611v65.79564h-16.91997V81.09543Z"/>
  <path class="cls-7" d="M559.3082,91.5697c0-6.39216-.87711-11.1219-2.63132-14.19432-1.75676-3.06732-5.26263-4.6048-10.52781-4.6048h-3.75829v-3.75829h16.91742c4.6354,0,8.11322,.59409,10.43347,1.78481,2.3177,1.19327,3.97757,3.35544,4.98216,6.4865,1.00204,3.13361,1.50434,7.89395,1.50434,14.28611v65.79564h-16.91997V91.5697Z"/>
  <path class="cls-1" d="M571.90314,54.27203c6.69604,7.64197,10.71381,17.28064,11.55811,27.02115-1.99951-9.57407-7.05511-18.28833-14.0553-24.56876l2.49719-2.45239h0Z"/>
  <path class="cls-6" d="M513.61547,51.01848c7.80079-5.44688,17.57078-8.55427,27.06687-8.61947"/>
  <path class="cls-4" d="M533.32273,52.3818c10.59652,3.70679,15.3165,2.25915,17.66274,.19635,3.86298-3.3964,2.95277-9.92154,8.67892-13.77703,1.9628-1.32156,3.93591-1.81143,5.16586-2.0223-8.92775-3.73798-13.32616-2.6786-15.69306-1.01645-4.48605,3.15031-3.78601,9.94856-10.15771,14.26104-2.16759,1.46701-4.31036,2.07574-5.65675,2.35839Z"/>
  <path class="cls-4" d="M546.26469,57.74344c10.59652,3.70679,15.3165,2.25915,17.66274,.19635,3.86298-3.3964,2.95277-9.92154,8.67892-13.77703,1.9628-1.32156,3.93591-1.81143,5.16586-2.0223-8.92775-3.73798-13.32616-2.6786-15.69306-1.01645-4.48605,3.15031-3.78601,9.94856-10.15771,14.26104-2.16759,1.46701-4.31036,2.07574-5.65675,2.35839Z"/>
</svg>