<?xml version="1.0" encoding="utf-8"?>
<!-- Generator: Adobe Illustrator 27.8.0, SVG Export Plug-In . SVG Version: 6.00 Build 0)  -->
<svg version="1.1" id="Layer_1" xmlns="http://www.w3.org/2000/svg" xmlns:xlink="http://www.w3.org/1999/xlink" x="0px" y="0px"
	 viewBox="0 0 583.5 219" style="enable-background:new 0 0 583.5 219;" xml:space="preserve">
<style type="text/css">
	.st0{fill:#231F20;}
	.st1{font-family:'Philosopher-Regular';}
	.st2{font-size:189.597px;}
	.st3{letter-spacing:-2;}
	.st4{fill:#C0C0C0;}
	.st5{fill:#010101;}
	.st6{fill:#575757;}
	.st7{fill:none;stroke:#575757;stroke-width:3.5;stroke-miterlimit:10;}
	.st8{fill:#F58859;}
</style>
<text transform="matrix(1 0 0 1 0.5667 157.3657)" class="st0 st1 st2">inn</text>
<text transform="matrix(1 0 0 1 253.4827 157.3657)" class="st0 st1 st2 st3">o</text>
<text transform="matrix(1 0 0 1 351.5071 157.3657)" class="st0 st1 st2">vi</text>
<path class="st4" d="M535.3,81.1c0-6.4-0.9-11.1-2.6-14.2c-1.8-3.1-5.3-4.6-10.5-4.6h-3.8v-3.8h16.9c4.6,0,8.1,0.6,10.4,1.8
	c2.3,1.2,4,3.4,5,6.5c1,3.1,1.5,7.9,1.5,14.3v65.8h-16.9L535.3,81.1L535.3,81.1z"/>
<path class="st5" d="M559.3,91.6c0-6.4-0.9-11.1-2.6-14.2c-1.8-3.1-5.3-4.6-10.5-4.6h-3.8V69h16.9c4.6,0,8.1,0.6,10.4,1.8
	c2.3,1.2,4,3.4,5,6.5c1,3.1,1.5,7.9,1.5,14.3v65.8h-16.9L559.3,91.6L559.3,91.6z"/>
<path class="st6" d="M571.9,54.3c6.7,7.6,10.7,17.3,11.6,27c-2-9.6-7.1-18.3-14.1-24.6L571.9,54.3C571.9,54.3,571.9,54.3,571.9,54.3
	z"/>
<path class="st7" d="M513.6,51c7.8-5.4,17.6-8.6,27.1-8.6"/>
<path class="st8" d="M533.3,52.4c10.6,3.7,15.3,2.3,17.7,0.2c3.9-3.4,3-9.9,8.7-13.8c2-1.3,3.9-1.8,5.2-2c-8.9-3.7-13.3-2.7-15.7-1
	c-4.5,3.2-3.8,9.9-10.2,14.3C536.8,51.5,534.7,52.1,533.3,52.4L533.3,52.4z"/>
<path class="st8" d="M546.3,57.7c10.6,3.7,15.3,2.3,17.7,0.2c3.9-3.4,3-9.9,8.7-13.8c2-1.3,3.9-1.8,5.2-2c-8.9-3.7-13.3-2.7-15.7-1
	c-4.5,3.2-3.8,9.9-10.2,14.3C549.8,56.9,547.6,57.5,546.3,57.7L546.3,57.7z"/>
</svg>
